<svg xmlns="http://www.w3.org/2000/svg" viewBox="0 0 1024 1024" width="1024" height="1024"><rect width="1024" height="1024" rx="228" fill="#080A12"/><g fill="#FFFFFF"><circle cx="263" cy="137" r="3.5" opacity="0.8"/><circle cx="186" cy="103" r="3.5" opacity="0.55"/><circle cx="796" cy="762" r="2" opacity="0.55"/><circle cx="301" cy="203" r="1.5" opacity="0.55"/><circle cx="242" cy="916" r="2.5" opacity="0.55"/><circle cx="223" cy="332" r="2.5" opacity="0.2"/><circle cx="837" cy="359" r="3.5" opacity="0.35"/><circle cx="208" cy="487" r="1.5" opacity="0.55"/><circle cx="47" cy="316" r="2.5" opacity="0.35"/><circle cx="431" cy="605" r="3.5" opacity="0.8"/><circle cx="192" cy="328" r="1.5" opacity="0.2"/><circle cx="84" cy="631" r="2.5" opacity="0.8"/><circle cx="702" cy="177" r="2" opacity="0.2"/><circle cx="430" cy="231" r="3.5" opacity="0.55"/><circle cx="213" cy="452" r="2.5" opacity="0.35"/><circle cx="894" cy="135" r="1.5" opacity="0.35"/><circle cx="302" cy="590" r="2" opacity="0.2"/><circle cx="353" cy="208" r="3.5" opacity="0.2"/><circle cx="80" cy="698" r="2.5" opacity="0.55"/><circle cx="57" cy="313" r="2" opacity="0.8"/><circle cx="853" cy="861" r="1.5" opacity="0.55"/><circle cx="623" cy="884" r="2.5" opacity="0.35"/><circle cx="276" cy="605" r="2" opacity="0.55"/><circle cx="581" cy="383" r="3.5" opacity="0.35"/><circle cx="385" cy="799" r="2.5" opacity="0.2"/><circle cx="455" cy="236" r="2" opacity="0.2"/><circle cx="96" cy="92" r="2" opacity="0.35"/><circle cx="613" cy="556" r="2" opacity="0.55"/><circle cx="982" cy="155" r="2.5" opacity="0.8"/><circle cx="655" cy="229" r="2" opacity="0.35"/><circle cx="454" cy="504" r="2" opacity="0.8"/><circle cx="459" cy="651" r="3.5" opacity="0.35"/><circle cx="511" cy="70" r="2.5" opacity="0.55"/><circle cx="269" cy="236" r="2" opacity="0.8"/><circle cx="861" cy="174" r="1.5" opacity="0.55"/><circle cx="574" cy="975" r="3.5" opacity="0.2"/><circle cx="507" cy="128" r="2" opacity="0.35"/><circle cx="358" cy="660" r="2.5" opacity="0.8"/><circle cx="538" cy="658" r="2.5" opacity="0.55"/><circle cx="911" cy="943" r="1.5" opacity="0.55"/><circle cx="948" cy="671" r="1.5" opacity="0.8"/><circle cx="889" cy="160" r="2.5" opacity="0.2"/><circle cx="861" cy="689" r="3.5" opacity="0.8"/><circle cx="745" cy="916" r="2" opacity="0.2"/><circle cx="239" cy="188" r="2.5" opacity="0.2"/><circle cx="414" cy="767" r="3.5" opacity="0.35"/><circle cx="560" cy="869" r="2" opacity="0.35"/><circle cx="674" cy="352" r="3.5" opacity="0.8"/><circle cx="65" cy="72" r="1.5" opacity="0.8"/><circle cx="569" cy="283" r="2" opacity="0.2"/><circle cx="382" cy="765" r="1.5" opacity="0.55"/><circle cx="831" cy="821" r="1.5" opacity="0.8"/><circle cx="400" cy="783" r="2.5" opacity="0.8"/><circle cx="261" cy="499" r="3.5" opacity="0.2"/><circle cx="113" cy="904" r="2.5" opacity="0.8"/><circle cx="433" cy="711" r="3.5" opacity="0.2"/><circle cx="633" cy="928" r="2.5" opacity="0.8"/><circle cx="439" cy="794" r="2" opacity="0.55"/><circle cx="865" cy="206" r="2" opacity="0.55"/><circle cx="507" cy="360" r="1.5" opacity="0.35"/><circle cx="45" cy="334" r="1.5" opacity="0.8"/><circle cx="782" cy="607" r="1.5" opacity="0.35"/><circle cx="428" cy="317" r="2" opacity="0.35"/><circle cx="971" cy="632" r="1.5" opacity="0.55"/><circle cx="554" cy="898" r="2.5" opacity="0.8"/><circle cx="619" cy="457" r="2" opacity="0.55"/><circle cx="768" cy="382" r="2.5" opacity="0.35"/><circle cx="449" cy="612" r="2" opacity="0.55"/><circle cx="891" cy="391" r="2.5" opacity="0.2"/><circle cx="113" cy="650" r="2" opacity="0.55"/><circle cx="658" cy="348" r="2.5" opacity="0.2"/><circle cx="610" cy="535" r="1.5" opacity="0.55"/><circle cx="802" cy="940" r="2" opacity="0.35"/><circle cx="591" cy="508" r="1.5" opacity="0.2"/><circle cx="202" cy="492" r="2" opacity="0.55"/><circle cx="845" cy="689" r="2" opacity="0.8"/><circle cx="704" cy="332" r="2" opacity="0.55"/><circle cx="547" cy="540" r="3.5" opacity="0.8"/><circle cx="518" cy="955" r="2.5" opacity="0.55"/><circle cx="454" cy="595" r="2.5" opacity="0.35"/><circle cx="887" cy="473" r="2.5" opacity="0.8"/><circle cx="938" cy="628" r="2" opacity="0.2"/><circle cx="473" cy="951" r="2.5" opacity="0.55"/><circle cx="899" cy="753" r="3.5" opacity="0.35"/><circle cx="644" cy="490" r="1.5" opacity="0.35"/><circle cx="912" cy="105" r="2" opacity="0.2"/><circle cx="194" cy="786" r="2.5" opacity="0.2"/><circle cx="535" cy="189" r="1.5" opacity="0.35"/><circle cx="70" cy="339" r="1.5" opacity="0.55"/><circle cx="98" cy="977" r="2.5" opacity="0.35"/><circle cx="730" cy="658" r="2" opacity="0.2"/><circle cx="569" cy="695" r="2" opacity="0.8"/><circle cx="186" cy="837" r="3.5" opacity="0.2"/><circle cx="395" cy="194" r="2.5" opacity="0.8"/><circle cx="547" cy="326" r="3.5" opacity="0.55"/><circle cx="201" cy="98" r="1.5" opacity="0.55"/><circle cx="868" cy="58" r="2" opacity="0.2"/><circle cx="188" cy="841" r="1.5" opacity="0.35"/><circle cx="258" cy="48" r="2" opacity="0.8"/><circle cx="981" cy="707" r="3.5" opacity="0.55"/><circle cx="840" cy="827" r="2" opacity="0.2"/><circle cx="488" cy="893" r="2.5" opacity="0.55"/><circle cx="918" cy="825" r="3.5" opacity="0.2"/><circle cx="815" cy="240" r="2.5" opacity="0.8"/><circle cx="630" cy="360" r="1.5" opacity="0.35"/><circle cx="883" cy="874" r="1.5" opacity="0.55"/><circle cx="538" cy="972" r="2.5" opacity="0.2"/><circle cx="207" cy="81" r="2" opacity="0.2"/><circle cx="230" cy="107" r="2" opacity="0.55"/><circle cx="150" cy="964" r="1.5" opacity="0.2"/></g><g transform="translate(512 512) scale(1.1) translate(-493 -366)">
<g stroke="#FFFFFF" stroke-width="38" stroke-linecap="round" stroke-linejoin="miter">
<polyline points="463,137 715,135 715,395" fill="none"/><line x1="255" y1="590" x2="425" y2="420"/><line x1="425" y1="420" x2="715" y2="135"/><line x1="288" y1="285" x2="565" y2="558"/><line x1="463" y1="137" x2="715" y2="135"/><line x1="715" y1="135" x2="715" y2="395"/></g>
<g fill="#080A12"><circle cx="425" cy="420" r="44"/><circle cx="463" cy="137" r="43"/><circle cx="715" cy="395" r="43"/><circle cx="288" cy="285" r="50"/><circle cx="565" cy="558" r="50"/></g>
<g fill="#FFFFFF"><circle cx="425" cy="420" r="28"/><circle cx="463" cy="137" r="27"/><circle cx="715" cy="395" r="27"/><circle cx="288" cy="285" r="34"/><circle cx="565" cy="558" r="34"/></g></g></svg>